<svg width="800" height="800" viewBox="0 0 800 800" fill="none" xmlns="http://www.w3.org/2000/svg">
<path fill-rule="evenodd" clip-rule="evenodd" d="M154.545 200.089V617.909C181.599 603.759 220.113 589.028 263.636 589.028C306.977 589.028 345.452 603.641 372.727 617.906V200.089C366.801 196.108 358.802 191.156 349.18 186.192C326.676 174.583 296.46 163.51 263.636 163.51C216.287 163.51 174.732 186.532 154.545 200.089ZM427.273 200.089V619.443C454.483 606.026 493 592.203 536.364 592.203C579.891 592.203 618.441 606.121 645.455 619.443V200.089C625.267 186.532 583.715 163.51 536.364 163.51C503.541 163.51 473.323 174.583 450.82 186.192C441.198 191.156 433.199 196.108 427.273 200.089ZM400 145.087C392.642 140.145 382.911 134.129 371.276 128.126C344.536 114.331 306.571 100 263.636 100C200.687 100 148.064 130.823 125.194 146.498C108.394 158.012 100 178.659 100 198.829V640.595C100 660.419 110.076 675.42 121.69 682.984C133.178 690.463 148.706 692.447 162.793 683.832C185.217 670.114 222.277 652.538 263.636 652.538C315.604 652.538 360.517 680.26 377.767 692.609C391.155 702.193 408.095 702.472 421.706 693.352C439.03 681.752 484.085 655.713 536.364 655.713C578.399 655.713 615.913 672.559 638.285 685.455C664.232 700.408 700 680.504 700 641.719V198.829C700 178.659 691.605 158.012 674.805 146.498C651.937 130.823 599.312 100 536.364 100C493.428 100 455.465 114.331 428.724 128.126C417.089 134.129 407.358 140.145 400 145.087Z" fill="url(#paint0_linear_213_43)"/>
<defs>
<linearGradient id="paint0_linear_213_43" x1="400" y1="100" x2="400" y2="700" gradientUnits="userSpaceOnUse">
<stop stop-color="#3FA3FF"/>
<stop offset="1" stop-color="#FF3FEC" stop-opacity="0.88"/>
</linearGradient>
</defs>
</svg>
