<svg width="800" height="800" viewBox="0 0 800 800" fill="none" xmlns="http://www.w3.org/2000/svg">
<path d="M654.089 338.907L654.086 338.912L653.439 339.839L653.327 340H653.012H652.69H652.083H650.365H650C650 339.954 650 339.908 650.001 339.862C650.007 339.525 650.034 339.204 650.078 338.901C650.156 338.36 650.289 337.873 650.452 337.444C650.854 336.381 651.441 335.663 651.849 335.307C651.937 335.23 652.016 335.169 652.083 335.122C652.15 335.169 652.229 335.23 652.317 335.307C652.668 335.613 653.15 336.186 653.534 337.014C653.597 337.15 653.657 337.294 653.714 337.444C653.73 337.485 653.745 337.526 653.76 337.569C653.902 337.966 654.017 338.41 654.088 338.899C654.089 338.902 654.089 338.905 654.089 338.907ZM652.951 340.352L653.083 340.349L652.907 340.601L652.083 341.781L651.836 342.135L651.602 342.47L651.173 343.085L651.105 343.181L650.304 342.271C650.21 341.981 650.132 341.661 650.079 341.313C650.035 341.028 650.008 340.723 650.003 340.398L650.468 340.391L652.083 340.365L652.532 340.358L652.951 340.352ZM650.984 343.355L650.879 343.506C650.751 343.304 650.622 343.068 650.505 342.8L650.984 343.355Z" stroke="url(#paint0_linear_213_25)" stroke-width="50"/>
<path d="M125 218.4H145.833V217.253L145.938 216.111C146.844 206.265 151.075 197.474 157.344 190.626C158.941 188.882 160.669 187.264 162.509 185.787C171.472 178.591 182.647 174.985 193.745 175C193.747 175 193.748 175 193.75 175L606.299 160C606.283 160 606.266 160 606.25 160H583.333C583.333 144.087 576.09 128.826 563.197 117.574C550.304 106.321 532.817 100 514.583 100H285.417C267.183 100 249.696 106.321 236.803 117.574C223.91 128.826 216.667 144.087 216.667 160H193.75C193.734 160 193.717 160 193.701 160C175.798 160.006 158.603 166.106 145.773 177.004C132.932 187.913 125.478 202.766 125 218.4ZM125 218.4L145.833 219.037M125 218.4V641.6C125.478 657.234 132.932 672.087 145.773 682.996C158.615 693.904 175.83 700.006 193.75 700L145.833 219.037M145.833 219.037V640.963L125.001 641.6H145.833V642.747L145.938 643.889C146.844 653.735 151.075 662.526 157.344 669.374C158.941 671.118 160.669 672.736 162.509 674.213C171.472 681.409 182.647 685.015 193.745 685C193.747 685 193.748 685 193.75 685L145.833 219.037ZM150 641.156C150.006 641.304 150.014 641.452 150.023 641.6C150.06 642.231 150.119 642.863 150.201 643.497C151.125 650.651 154.914 657.959 161.958 663.942C163.674 665.399 165.542 666.739 167.541 667.945C174.888 672.377 183.997 675.003 193.742 675H193.75V660.001L193.792 675H606.208L150 641.156ZM150 641.156V218.844C150.006 218.696 150.014 218.548 150.023 218.4C150.06 217.769 150.119 217.137 150.201 216.503C151.125 209.349 154.914 202.041 161.958 196.058C163.674 194.601 165.542 193.261 167.541 192.055C174.888 187.623 183.997 184.997 193.742 185H193.75V199.999M150 641.156L562.5 200C562.5 211.044 558.247 221.13 551.368 228.873C550.077 230.327 548.692 231.698 547.226 232.978C538.061 240.977 526.276 245 514.583 245H285.417C273.724 245 261.939 240.977 252.774 232.978C251.308 231.698 249.923 230.327 248.632 228.873C241.753 221.13 237.5 211.044 237.5 200V185H216.667H193.792L193.75 199.999M193.75 199.999V200V199.999ZM606.258 675H606.25L606.255 685C617.353 685.015 628.528 681.409 637.491 674.213C639.331 672.736 641.059 671.118 642.656 669.374C648.925 662.526 653.156 653.735 654.062 643.889L654.167 642.747V641.6H674.999L654.167 640.963V542.038V540C654.167 540.999 653.981 541.853 653.715 542.556C653.312 543.619 652.725 544.337 652.317 544.693C652.229 544.77 652.15 544.831 652.083 544.878C652.016 544.831 651.938 544.77 651.849 544.693C651.441 544.337 650.855 543.619 650.452 542.556C650.186 541.853 650 540.999 650 540V542.038V641.156C649.994 641.304 649.986 641.452 649.977 641.6C649.94 642.231 649.881 642.863 649.799 643.497C648.875 650.651 645.086 657.959 638.042 663.942C636.326 665.399 634.458 666.739 632.459 667.945C625.112 672.377 616.003 675.003 606.258 675Z" stroke="url(#paint1_linear_213_25)" stroke-width="50"/>
<mask id="path-3-inside-1_213_25" fill="white">
<path d="M543.458 346.6L354.167 531L255.854 445.8C251.47 442.523 245.831 440.811 240.063 441.006C234.296 441.2 228.825 443.287 224.743 446.849C220.662 450.411 218.271 455.185 218.048 460.219C217.826 465.252 219.787 470.174 223.542 474L338.125 574C342.356 577.768 348.122 579.925 354.167 580C357.287 579.938 360.36 579.321 363.197 578.186C366.035 577.051 368.576 575.423 370.667 573.4L576.917 373.4C580.989 369.448 583.096 364.247 582.773 358.939C582.451 353.632 579.726 348.654 575.198 345.1C570.67 341.546 564.71 339.708 558.628 339.989C552.547 340.27 546.843 342.648 542.771 346.6H543.458Z"/>
</mask>
<path d="M543.458 346.6L578.348 382.415L666.439 296.6H543.458V346.6ZM354.167 531L321.421 568.785L356.144 598.877L389.056 566.815L354.167 531ZM255.854 445.8L288.6 408.015L287.234 406.831L285.787 405.75L255.854 445.8ZM223.542 474L187.854 509.019L189.208 510.4L190.665 511.671L223.542 474ZM338.125 574L371.379 536.662L371.191 536.494L371.002 536.329L338.125 574ZM354.167 580L353.545 629.996L354.349 630.006L355.153 629.99L354.167 580ZM370.667 573.4L405.436 609.332L405.455 609.313L405.474 609.295L370.667 573.4ZM576.917 373.4L611.724 409.295L611.731 409.289L611.737 409.282L576.917 373.4ZM542.771 346.6L507.95 310.718L419.45 396.6H542.771V346.6ZM508.569 310.785L319.277 495.185L389.056 566.815L578.348 382.415L508.569 310.785ZM386.912 493.215L288.6 408.015L223.109 483.585L321.421 568.785L386.912 493.215ZM285.787 405.75C271.779 395.28 254.842 390.479 238.379 391.034L241.748 490.977C236.82 491.143 231.162 489.767 225.921 485.85L285.787 405.75ZM238.379 391.034C221.917 391.589 205.21 397.532 191.867 409.177L257.62 484.52C252.439 489.042 246.675 490.811 241.748 490.977L238.379 391.034ZM191.867 409.177C178.348 420.976 168.973 438.215 168.097 458.008L267.999 462.43C267.569 472.156 262.976 479.845 257.62 484.52L191.867 409.177ZM168.097 458.008C167.219 477.855 175.085 496.007 187.854 509.019L259.23 438.981C264.49 444.341 268.432 452.65 267.999 462.43L168.097 458.008ZM190.665 511.671L305.248 611.671L371.002 536.329L256.418 436.329L190.665 511.671ZM304.871 611.338C318.732 623.683 336.328 629.782 353.545 629.996L354.788 530.004C359.916 530.068 365.98 531.853 371.379 536.662L304.871 611.338ZM355.153 629.99C364.17 629.812 373.211 628.033 381.767 624.61L344.628 531.763C347.509 530.61 350.404 530.064 353.181 530.01L355.153 629.99ZM381.767 624.61C390.325 621.187 398.445 616.097 405.436 609.332L335.897 537.468C338.708 534.748 341.745 532.916 344.628 531.763L381.767 624.61ZM405.474 609.295L611.724 409.295L542.109 337.505L335.859 537.505L405.474 609.295ZM611.737 409.282C625.472 395.954 633.953 376.841 632.681 355.908L532.865 361.97C532.238 351.652 536.506 342.943 542.096 337.518L611.737 409.282ZM632.681 355.908C631.415 335.062 620.794 317.326 606.068 305.768L544.327 384.432C538.658 379.982 533.487 372.202 532.865 361.97L632.681 355.908ZM606.068 305.768C591.536 294.362 573.625 289.242 556.318 290.042L560.939 389.935C555.795 390.173 549.804 388.73 544.327 384.432L606.068 305.768ZM556.318 290.042C539.011 290.843 521.449 297.619 507.95 310.718L577.592 382.482C572.237 387.678 566.083 389.698 560.939 389.935L556.318 290.042ZM542.771 396.6H543.458V296.6H542.771V396.6Z" fill="url(#paint2_linear_213_25)" mask="url(#path-3-inside-1_213_25)"/>
<defs>
<linearGradient id="paint0_linear_213_25" x1="652.083" y1="320.011" x2="652.083" y2="500" gradientUnits="userSpaceOnUse">
<stop stop-color="#3FA3FF"/>
<stop offset="1" stop-color="#FF3FEC" stop-opacity="0.83"/>
</linearGradient>
<linearGradient id="paint1_linear_213_25" x1="400" y1="100" x2="400" y2="700" gradientUnits="userSpaceOnUse">
<stop stop-color="#3FA3FF"/>
<stop offset="1" stop-color="#FF3FEC" stop-opacity="0.83"/>
</linearGradient>
<linearGradient id="paint2_linear_213_25" x1="400.418" y1="339.961" x2="400.418" y2="580" gradientUnits="userSpaceOnUse">
<stop stop-color="#3FA3FF"/>
<stop offset="1" stop-color="#FF3FEC" stop-opacity="0.83"/>
</linearGradient>
</defs>
</svg>
